<svg xmlns="http://www.w3.org/2000/svg" width="98.5" height="86" viewBox="0 0 98.5 86">
  <g id="Group_12" data-name="Group 12" transform="translate(-173.239 -338.514)">
    <path id="Path_6" data-name="Path 6" d="M221.7,342.1a22.991,22.991,0,0,1,9.378,1.972,1.795,1.795,0,0,0,1.455-3.28,26.573,26.573,0,0,0-10.832-2.281,26.989,26.989,0,0,0-26.713,24.406c-.251-.011-.5-.017-.74-.017a21.005,21.005,0,0,0,0,42.011,1.795,1.795,0,0,0,0-3.589,17.417,17.417,0,1,1,2.2-34.684,1.792,1.792,0,0,0,2.016-1.745A23.365,23.365,0,0,1,221.7,342.1Zm0,0" transform="translate(0)" fill="#3e8ff9"/>
    <path id="Path_7" data-name="Path 7" d="M296.286,371.742c-.326,0-.656.009-.994.025a26.685,26.685,0,0,0-7.229-12.7,1.8,1.8,0,1,0-2.526,2.553A23.123,23.123,0,0,1,292.1,374a1.8,1.8,0,0,0,1.966,1.463,19.4,19.4,0,1,1,2.219,38.68H292.6V407.98a1.795,1.795,0,0,0-3.589,0v16.543l-17.185,8.183V410.63l19.751-9.4a1.794,1.794,0,0,0,.849-2.392,1.747,1.747,0,0,0-.844-.814v-.035L270.8,388.09a1.8,1.8,0,0,0-1.542,0l-20.773,9.893c-.028.014-.029.028-.05.041a1.376,1.376,0,0,0-.135.063,1.785,1.785,0,0,0-.837,1.517v26.052a1.791,1.791,0,0,0,1.023,1.621l20.773,9.893h.044a1.693,1.693,0,0,0,1.5,0l20.773-9.894a1.793,1.793,0,0,0,1.023-1.621v-7.917h3.685a23,23,0,0,0,0-45.995ZM270.032,391.7l16.6,7.906-16.6,7.906-16.6-7.906Zm-18.979,10.749,17.184,8.183V432.7l-17.184-8.183Zm0,0" transform="translate(-47.543 -12.83)" fill="#3e8ff9"/>
  </g>
</svg>
