<svg xmlns="http://www.w3.org/2000/svg" width="67.631" height="73" viewBox="0 0 67.631 73">
  <g id="Groupe_49" data-name="Groupe 49" transform="translate(-148 -258.89)">
    <path id="Tracé_33" data-name="Tracé 33" d="M232.425,322.73a19.1,19.1,0,0,0-19.085,19.085,21.721,21.721,0,0,0,9.022,17.327v13.783a1.349,1.349,0,0,0,.095.46v.108a1.257,1.257,0,0,0,.081.162l4.761,7.088a1.351,1.351,0,0,0,1.122.6h7.873a1.353,1.353,0,0,0,1.123-.6l4.761-7.088a1.5,1.5,0,0,0,.081-.162v-.108a1.343,1.343,0,0,0,.094-.46V359.142a21.721,21.721,0,0,0,9.022-17.327,19.1,19.1,0,0,0-18.95-19.085Zm3.219,55.944h-6.439l-2.948-4.383H238.58Zm-10.565-7.088V368h14.689l.014,3.584Zm15.312-14.3v.04a1.35,1.35,0,0,0-.608,1.136v6.871h-14.7v-6.952a1.35,1.35,0,0,0-.608-1.136,18.94,18.94,0,0,1-8.413-15.474,16.38,16.38,0,0,1,32.747,0,18.937,18.937,0,0,1-8.413,15.515Zm0,0" transform="translate(-50.61 -49.448)" fill="#3d3c3c"/>
    <path id="Tracé_34" data-name="Tracé 34" d="M295.752,349.91a1.353,1.353,0,0,0,0,2.705A10.2,10.2,0,0,1,305.936,362.8a1.353,1.353,0,1,0,2.705,0,12.9,12.9,0,0,0-12.89-12.89Zm0,0" transform="translate(-113.396 -70.501)" fill="#3d3c3c"/>
    <path id="Tracé_35" data-name="Tracé 35" d="M159.091,401.089h-9.739a1.353,1.353,0,0,0,0,2.705h9.739a1.353,1.353,0,0,0,0-2.705Zm0,0" transform="translate(0 -110.142)" fill="#3d3c3c"/>
    <path id="Tracé_36" data-name="Tracé 36" d="M403.892,401.089h-9.739a1.353,1.353,0,0,0,0,2.705h9.739a1.353,1.353,0,0,0,0-2.705Zm0,0" transform="translate(-189.614 -110.142)" fill="#3d3c3c"/>
    <path id="Tracé_37" data-name="Tracé 37" d="M199.141,472.606a1.349,1.349,0,0,0-2.054,0v-.027l-6.912,6.939a1.352,1.352,0,1,0,1.76,2.054,1.378,1.378,0,0,0,.148-.147l6.911-6.912a1.352,1.352,0,0,0,.148-1.907Zm0,0" transform="translate(-32.3 -165.171)" fill="#3d3c3c"/>
    <path id="Tracé_38" data-name="Tracé 38" d="M372.376,299.773a1.355,1.355,0,0,0-1.76,0l-6.912,6.912a1.353,1.353,0,0,0,.961,2.313l-.013-.014a1.355,1.355,0,0,0,.96-.392l6.912-6.912a1.353,1.353,0,0,0-.147-1.907Zm0,0" transform="translate(-166.767 -31.415)" fill="#3d3c3c"/>
    <path id="Tracé_39" data-name="Tracé 39" d="M372.543,479.7a1.361,1.361,0,0,0-.269-.272l-6.912-6.939a1.352,1.352,0,1,0-2.054,1.759,1.236,1.236,0,0,0,.147.148l6.912,6.912a1.353,1.353,0,0,0,2.176-1.608Zm0,0" transform="translate(-166.518 -165.077)" fill="#3d3c3c"/>
    <path id="Tracé_40" data-name="Tracé 40" d="M199.5,306.684l-6.911-6.912a1.353,1.353,0,0,0-1.907,1.907l6.912,6.912a1.352,1.352,0,0,0,1.906-1.907Zm0,0" transform="translate(-32.808 -31.414)" fill="#3d3c3c"/>
    <path id="Tracé_41" data-name="Tracé 41" d="M293.35,258.89A1.353,1.353,0,0,0,292,260.243v9.779a1.353,1.353,0,0,0,1.311,1.393h.041a1.352,1.352,0,0,0,1.353-1.353v-9.82a1.353,1.353,0,0,0-1.353-1.353Zm0,0" transform="translate(-111.535)" fill="#3d3c3c"/>
  </g>
</svg>
