<svg xmlns="http://www.w3.org/2000/svg" xmlns:xlink="http://www.w3.org/1999/xlink" width="84.498" height="94" viewBox="0 0 84.498 94">
  <defs>
    <clipPath id="clip-path">
      <rect id="Rectangle_3" data-name="Rectangle 3" width="84.498" height="94" fill="none"/>
    </clipPath>
  </defs>
  <g id="Groupe_4" data-name="Groupe 4" transform="translate(-173 -282.89)">
    <g id="Groupe_3" data-name="Groupe 3" transform="translate(173 282.89)">
      <g id="Groupe_2" data-name="Groupe 2" transform="translate(0 0)" clip-path="url(#clip-path)">
        <path id="Tracé_2" data-name="Tracé 2" d="M272.886,384.6a1.692,1.692,0,0,0,.965-1.528V362.761a1.694,1.694,0,1,0-3.387,0V382l-19.646,9.349V366.229l22.063-10.508a1.693,1.693,0,0,0,.8-2.256,1.662,1.662,0,0,0-.606-.656.571.571,0,0,0-.2-.145L249.846,341.7a1.689,1.689,0,0,0-1.457,0l-23.033,10.966c-.021.012-.03.028-.052.039-.041.021-.085.034-.125.058a1.691,1.691,0,0,0-.789,1.432V383.07a1.693,1.693,0,0,0,.965,1.528l23.033,10.966a1.6,1.6,0,0,0,1.417,0h.04Zm-45.094-27.725,7.1,3.378a1.694,1.694,0,0,0,1.457-3.058l-6.307-3,19.091-9.091,19.09,9.091-19.09,9.091-5.937-2.827a1.694,1.694,0,0,0-1.457,3.06l5.7,2.709v25.131l-19.647-9.349Zm0,0" transform="translate(-206.951 -321.632)"/>
        <path id="Tracé_3" data-name="Tracé 3" d="M302.994,288.421l4.224-2.358a1.694,1.694,0,0,0-1.651-2.959l-8.807,4.915a1.692,1.692,0,0,0-.416,2.629l6.992,7.536a1.694,1.694,0,1,0,2.482-2.3l-3.881-4.186a38.723,38.723,0,0,1,2.546,76.147,1.694,1.694,0,0,0,.357,3.35,1.745,1.745,0,0,0,.359-.038,42.116,42.116,0,0,0-2.2-82.735Zm0,0" transform="translate(-254.189 -282.889)"/>
        <path id="Tracé_4" data-name="Tracé 4" d="M208.523,372.555a1.694,1.694,0,1,0-2.484,2.3l3.881,4.184a38.722,38.722,0,0,1-2.26-76.211,1.694,1.694,0,0,0-.689-3.318,42.116,42.116,0,0,0,1.9,82.8l-4.231,2.361a1.694,1.694,0,0,0,1.652,2.959l8.807-4.914a1.7,1.7,0,0,0,.416-2.631Zm0,0" transform="translate(-173.311 -293.848)"/>
      </g>
    </g>
  </g>
</svg>
