<svg xmlns="http://www.w3.org/2000/svg" xmlns:xlink="http://www.w3.org/1999/xlink" width="79.708" height="91" viewBox="0 0 79.708 91">
  <defs>
    <clipPath id="clip-path">
      <rect id="Rectangle_6" data-name="Rectangle 6" width="79.708" height="91" fill="none"/>
    </clipPath>
  </defs>
  <g id="Groupe_15" data-name="Groupe 15" transform="translate(-355.276 -309.816)">
    <g id="Groupe_14" data-name="Groupe 14" transform="translate(355.276 309.816)">
      <g id="Groupe_13" data-name="Groupe 13" transform="translate(0 0)" clip-path="url(#clip-path)">
        <path id="Tracé_8" data-name="Tracé 8" d="M433.422,339.613a1.655,1.655,0,0,0-1.7,1.619c-.743,32.255-27.63,50.483-33.014,53.809l-3.338,2.144-3.338-2.144a76.3,76.3,0,0,1-11.854-9.247l5.867-5.112h9.325a1.659,1.659,0,0,0,1.658-1.658v-8.092a15.7,15.7,0,0,0,0-31.228v-8.753h9.284a1.656,1.656,0,0,0,1.313-.646l5.517-7.156,19.112,10.521a1.657,1.657,0,1,0,1.6-2.9L396.17,310.02a1.661,1.661,0,0,0-1.6,0l-37.677,20.746a1.652,1.652,0,0,0-.855,1.352l-.232,3.855c-1.415,23.512,10.247,40.478,20.586,50.755.026.036.035.079.063.112a1.534,1.534,0,0,0,.208.153,80.676,80.676,0,0,0,13.629,10.868l4.184,2.69a1.656,1.656,0,0,0,1.8,0l4.181-2.69c5.638-3.484,33.8-22.582,34.587-56.554a1.655,1.655,0,0,0-1.619-1.694Zm-25.66,15.7a12.388,12.388,0,1,1-12.388-12.387,12.388,12.388,0,0,1,12.388,12.387ZM359.115,336.17l.178-2.941,36.08-19.864,14.831,8.165-4.7,6.1H395.373a1.658,1.658,0,0,0-1.658,1.658v10.415a15.7,15.7,0,0,0,0,31.228v6.437h-8.29a1.663,1.663,0,0,0-1.088.408l-6.522,5.685c-9.614-9.878-20-25.69-18.7-47.293Zm0,0" transform="translate(-355.552 -309.815)"/>
      </g>
    </g>
    <path id="Tracé_9" data-name="Tracé 9" d="M456.875,423.551a1.658,1.658,0,0,0,1.658,1.658,4.962,4.962,0,1,1-4.961,4.962,1.658,1.658,0,0,0-3.316,0,8.277,8.277,0,1,0,8.277-8.277,1.657,1.657,0,0,0-1.658,1.657Zm0,0" transform="translate(-63.436 -74.855)"/>
  </g>
</svg>
