<svg xmlns="http://www.w3.org/2000/svg" xmlns:xlink="http://www.w3.org/1999/xlink" width="66" height="66" viewBox="0 0 66 66">
  <defs>
    <clipPath id="clip-path">
      <rect id="Rectangle_23" data-name="Rectangle 23" width="66" height="66" fill="#3e8ff9"/>
    </clipPath>
  </defs>
  <g id="Groupe_37" data-name="Groupe 37" transform="translate(-160 -284.89)">
    <path id="Tracé_28" data-name="Tracé 28" d="M252.722,391.435l9.737,4.636a1.14,1.14,0,0,0,1.021-.007s.008.009.013.007l9.736-4.636a1.2,1.2,0,0,0,.685-1.085v-6.106a1.2,1.2,0,1,0-2.4,0v5.347l-7.333,3.49v-9.546l9.051-4.31a1.2,1.2,0,0,0,.568-1.6,1.164,1.164,0,0,0-.384-.438.612.612,0,0,0-.185-.13l-9.737-4.637a1.2,1.2,0,0,0-1.033,0l-9.737,4.637a.527.527,0,0,0-.05.034c-.024.013-.051.02-.075.035a1.2,1.2,0,0,0-.561,1.016V390.35a1.2,1.2,0,0,0,.687,1.085Zm1.719-11.39,7.332,3.49v9.546l-7.332-3.49Zm8.534-5.209,6.939,3.3-6.939,3.3-6.94-3.3Zm0,0" transform="translate(-69.866 -66.356)" fill="#3e8ff9"/>
    <g id="Groupe_36" data-name="Groupe 36" transform="translate(160 284.89)">
      <g id="Groupe_35" data-name="Groupe 35" transform="translate(0 0)" clip-path="url(#clip-path)">
        <path id="Tracé_29" data-name="Tracé 29" d="M235.558,379.627a19.64,19.64,0,1,0-19.64-19.64,19.64,19.64,0,0,0,19.64,19.64Zm0-36.875a17.235,17.235,0,1,1-17.235,17.235,17.235,17.235,0,0,1,17.235-17.235Zm0,0" transform="translate(-202.449 -326.989)" fill="#3e8ff9"/>
        <path id="Tracé_30" data-name="Tracé 30" d="M241.244,310.7h-7.225a25.479,25.479,0,0,0-2.11-5.1l5.108-5.109a1.2,1.2,0,0,0,0-1.7l-8.472-8.473a1.2,1.2,0,0,0-1.7,0l-5.108,5.109a25.429,25.429,0,0,0-5.1-2.11v-7.222a1.2,1.2,0,0,0-1.2-1.2H203.456a1.2,1.2,0,0,0-1.2,1.2v7.225a25.481,25.481,0,0,0-5.1,2.111l-5.109-5.109a1.2,1.2,0,0,0-1.7,0l-8.473,8.473a1.2,1.2,0,0,0,1.7,1.7l7.622-7.621,4.906,4.906a1.207,1.207,0,0,0,1.467.182,23.011,23.011,0,0,1,6.175-2.559,1.2,1.2,0,0,0,.908-1.166v-6.938h9.576v6.941a1.2,1.2,0,0,0,.908,1.166,23.008,23.008,0,0,1,6.175,2.559,1.2,1.2,0,0,0,1.467-.182l4.9-4.906,6.772,6.772-4.9,4.906a1.2,1.2,0,0,0-.183,1.466,23.028,23.028,0,0,1,2.559,6.176,1.2,1.2,0,0,0,1.166.908h6.94v9.577H233.1a1.2,1.2,0,0,0-1.166.906,23.038,23.038,0,0,1-2.559,6.177,1.2,1.2,0,0,0,2.065,1.233,25.439,25.439,0,0,0,2.578-5.913h7.225a1.2,1.2,0,0,0,1.2-1.2V311.9a1.2,1.2,0,0,0-1.2-1.2Zm0,0" transform="translate(-176.338 -284.89)" fill="#3e8ff9"/>
      </g>
    </g>
    <path id="Tracé_31" data-name="Tracé 31" d="M219.329,396.092l-7.622,7.622-4.906-4.906a1.2,1.2,0,0,0-1.465-.181,23.056,23.056,0,0,1-6.178,2.557,1.2,1.2,0,0,0-.907,1.167v6.942h-9.581v-6.947a1.2,1.2,0,0,0-.907-1.166,23.063,23.063,0,0,1-6.177-2.557,1.2,1.2,0,0,0-1.466.181l-4.906,4.9-6.772-6.77,4.906-4.907a1.2,1.2,0,0,0,.182-1.466,23.051,23.051,0,0,1-2.558-6.177,1.2,1.2,0,0,0-1.166-.906h-6.941v-9.576h6.941a1.2,1.2,0,0,0,1.166-.908,23.056,23.056,0,0,1,2.558-6.176,1.2,1.2,0,1,0-2.065-1.233,25.483,25.483,0,0,0-2.578,5.912h-7.224a1.2,1.2,0,0,0-1.2,1.2v11.981a1.2,1.2,0,0,0,1.2,1.2h7.224a25.371,25.371,0,0,0,2.111,5.1l-5.109,5.108a1.2,1.2,0,0,0,0,1.7l8.473,8.472a1.2,1.2,0,0,0,1.7,0l5.109-5.109a25.485,25.485,0,0,0,5.1,2.11v7.226a1.2,1.2,0,0,0,1.2,1.2h11.978a1.2,1.2,0,0,0,1.2-1.2v-7.229a25.463,25.463,0,0,0,5.1-2.11l5.108,5.109a1.2,1.2,0,0,0,1.7,0l8.472-8.472a1.2,1.2,0,1,0-1.7-1.7Zm0,0" transform="translate(-0.35 -60.807)" fill="#3e8ff9"/>
  </g>
</svg>
