<svg xmlns="http://www.w3.org/2000/svg" xmlns:xlink="http://www.w3.org/1999/xlink" width="66.856" height="64.333" viewBox="0 0 66.856 64.333">
  <defs>
    <clipPath id="clip-path">
      <rect id="Rectangle_24" data-name="Rectangle 24" width="66.856" height="64.333" fill="#3d3c3c"/>
    </clipPath>
  </defs>
  <g id="Groupe_48" data-name="Groupe 48" transform="translate(-115.591 -324.457)">
    <g id="Groupe_47" data-name="Groupe 47" transform="translate(115.591 324.457)">
      <g id="Groupe_46" data-name="Groupe 46" transform="translate(0 0)" clip-path="url(#clip-path)">
        <path id="Tracé_32" data-name="Tracé 32" d="M158.446,370.335v-1.16a12.249,12.249,0,0,0,.946-.857,17.241,17.241,0,0,0,4.364-9.613,8.475,8.475,0,0,0,5.475-3.255c1.829-2.585,1.993-6.307.466-10.974a1.264,1.264,0,0,0-.5-.656l-.694-.467a17.109,17.109,0,0,0-4.087-11.517c-3.393-3.822-8.6-5.752-15.5-5.777-6.888,0-12.11,1.955-15.5,5.727A17.1,17.1,0,0,0,129.32,343.3l-.694.466a1.266,1.266,0,0,0-.5.656c-1.526,4.693-1.362,8.388.467,10.974a8.5,8.5,0,0,0,5.474,3.292,17.262,17.262,0,0,0,4.377,9.625,12.4,12.4,0,0,0,.946.857v1.16c-4.832.934-24.118,5.462-23.791,18.328a1.261,1.261,0,0,0,1.261,1.261h64.119a1.261,1.261,0,0,0,1.261-1.261c.328-12.866-18.959-17.395-23.791-18.328Zm-25.141-14.456a5.48,5.48,0,0,1-2.674-1.955l.063.012c-1.261-1.841-1.375-4.629-.252-8.313l.921-.619a1.26,1.26,0,0,0,.555-1.173,14.907,14.907,0,0,1,3.431-10.381c2.851-3.23,7.43-4.845,13.56-4.869s10.709,1.639,13.611,4.869a14.907,14.907,0,0,1,3.431,10.381,1.26,1.26,0,0,0,.555,1.173l.921.619c1.122,3.671,1.047,6.471-.252,8.313a5.5,5.5,0,0,1-2.687,1.955,8.4,8.4,0,0,0,2.056-6.307,5.9,5.9,0,0,0-2.031-3.532c-.542-12.614-9.385-14.027-13.194-14.027a15.883,15.883,0,0,0-2.41.177,15.88,15.88,0,0,0-2.409-.177c-3.784,0-12.614,1.387-13.2,14.027a5.9,5.9,0,0,0-2.056,3.52,8.391,8.391,0,0,0,2.056,6.307ZM162,345.535a25.979,25.979,0,0,1-15.074-3.784,1.263,1.263,0,0,0-1.64.164c-2.523,2.712-7.127,3.343-9.347,3.481.681-8.918,6.08-10.86,10.621-10.86a12.093,12.093,0,0,1,2.157.177,1.275,1.275,0,0,0,.5,0,12.256,12.256,0,0,1,2.157-.177c4.5,0,9.928,1.992,10.559,10.987Zm-25.62,10.583.051.013a1.265,1.265,0,0,0-.315-.845c-1.729-1.981-2.523-3.784-2.309-5.273a3.345,3.345,0,0,1,1.148-2.132c1.665,0,7.569-.315,11.353-3.582a28.44,28.44,0,0,0,14,3.784,16.633,16.633,0,0,0,2.6-.139,3.33,3.33,0,0,1,1.136,2.069c.214,1.463-.58,3.292-2.308,5.273a1.259,1.259,0,0,0-.315.845v.656l-7.342,3.935a3.632,3.632,0,1,0,1.136,2.636,3.289,3.289,0,0,0,0-.341l5.79-3.1a13.878,13.878,0,0,1-3.38,6.66,11.242,11.242,0,0,1-8.364,3.128h-.631a11.263,11.263,0,0,1-8.35-3.116c-3.986-3.973-3.9-10.407-3.9-10.47Zm16.311,7.241a1.123,1.123,0,1,1-1.122-1.123,1.123,1.123,0,0,1,1.122,1.123Zm-5.046,23.967H118.156c1-9.473,16.4-13.434,21.218-14.456v2.258c0,2.864,3.481,5.046,8.275,5.411Zm-5.752-12.2v-4.352a15.251,15.251,0,0,0,6.7,1.413h.631a15.251,15.251,0,0,0,6.7-1.413v4.352c0,1.2-2.737,2.927-7.014,2.927s-7.013-1.729-7.013-2.927Zm8.275,12.236v-6.837c4.794-.328,8.275-2.523,8.275-5.411v-2.208c4.857,1.009,20.183,4.969,21.217,14.456Zm0,0" transform="translate(-115.591 -325.722)" fill="#3d3c3c"/>
      </g>
    </g>
  </g>
</svg>
